# Created by FreeCAD <http://www.freecadweb.org>
v 8.514620 -35.476959 1.000000
v 23.485380 -5.535439 0.500000
v 23.485380 -5.535439 1.000000
v 8.514620 -35.476959 0.000000
v 23.485380 -5.535439 0.000000
v 30.970760 -20.506199 0.000000
v 30.970760 -20.506199 0.500000
v 30.970760 -20.506199 1.000000
v 1.029241 -20.506199 0.000000
v 1.029241 -20.506199 1.000000
v 10.385965 -24.248888 0.000000
v 8.514620 -27.991579 0.000000
v 11.321638 -22.377544 0.000000
v 5.707603 -22.377544 0.000000
v 6.643275 -24.248888 0.000000
v 19.742691 -5.535439 0.000000
v 14.128757 -16.763306 0.000000
v 4.771930 -20.506199 0.000000
v 10.385965 -24.248888 1.000000
v 8.514620 -27.991579 1.000000
v 11.321638 -22.377544 1.000000
v 5.707603 -22.377544 1.000000
v 6.643275 -24.248888 1.000000
v 19.742691 -5.535439 1.000000
v 4.771930 -20.506199 1.000000
v 28.410444 -5.010409 0.000000
v 30.970758 -5.535439 0.000000
v 25.858397 -4.435955 0.000000
v 22.983425 -3.667320 0.000000
v 20.442276 -2.827936 0.000000
v 18.224457 -1.934699 0.000000
v 14.480927 -1.610794 0.000000
v 15.999998 -0.857075 0.000000
v 12.965134 -2.269320 0.000000
v 10.489840 -3.175107 0.000000
v 7.743419 -3.991212 0.000000
v 30.970758 -5.535439 1.000000
v 28.410444 -5.010409 1.000000
v 25.858397 -4.435955 1.000000
v 22.983425 -3.667320 1.000000
v 20.442276 -2.827936 1.000000
v 18.224457 -1.934699 1.000000
v 15.999998 -0.857075 1.000000
v 14.480927 -1.610794 1.000000
v 12.965134 -2.269320 1.000000
v 12.257585 -13.020544 1.000000
v 10.489840 -3.175107 1.000000
v 7.743419 -3.991212 1.000000
v 14.128757 -16.763306 0.500000
v 19.742691 -5.535439 0.500000
v 12.257585 -13.020544 0.500000
v 16.000000 -0.857075 2.000000
v 13.775541 -1.934699 2.000000
v 16.000000 -0.857075 3.000000
v 13.775541 -1.934699 3.000000
v 11.557722 -2.827936 2.000000
v 11.557722 -2.827936 3.000000
v 9.016573 -3.667320 2.000000
v 9.016573 -3.667320 3.000000
v 6.141601 -4.435955 2.000000
v 6.141601 -4.435955 3.000000
v 3.589554 -5.010409 3.000000
v 3.589554 -5.010409 2.000000
v 1.029240 -5.535439 2.000000
v 1.029240 -5.535439 3.000000
v 24.256578 -3.991212 2.000000
v 21.510159 -3.175107 2.000000
v 24.256578 -3.991212 3.000000
v 21.510159 -3.175107 3.000000
v 19.034864 -2.269320 2.000000
v 19.034864 -2.269320 3.000000
v 17.519070 -1.610794 2.000000
v 17.519070 -1.610794 3.000000
v 1.029240 -20.506199 2.500000
v 1.029240 -20.506199 2.000000
v 1.029240 -26.120234 3.000000
v 1.029240 -26.120234 2.000000
v 8.514620 -5.535439 2.000000
v 12.257310 -5.535439 2.000000
v 17.069290 -18.367386 2.000000
v 19.742414 -13.020543 2.000000
v 16.000000 -20.506201 2.000000
v 1.120316 -27.156445 3.000000
v 1.384263 -28.230013 3.000000
v 16.000000 -20.506201 3.000000
v 1.880613 -29.494473 3.000000
v 2.630348 -30.896257 3.000000
v 3.666219 -32.440716 3.000000
v 5.016049 -34.122734 3.000000
v 6.338480 -35.560352 3.000000
v 7.772661 -36.962704 3.000000
v 8.514620 -5.535439 3.000000
v 12.257310 -5.535439 3.000000
v 17.871243 -16.763304 3.000000
v 7.772661 -36.962704 2.000000
v 11.010116 -30.487076 2.500000
v 11.010116 -30.487076 2.000000
v 16.000000 -20.506201 2.500000
v 17.069290 -18.367386 2.500000
v 19.742414 -13.020543 2.500000
v 1.120316 -27.156445 2.000000
v 1.384263 -28.230013 2.000000
v 1.880613 -29.494473 2.000000
v 2.630348 -30.896257 2.000000
v 3.666219 -32.440716 2.000000
v 5.016049 -34.122734 2.000000
v 6.338480 -35.560352 2.000000
v 12.257310 -5.535439 2.500000
v 8.514620 -5.535439 2.500000
v 20.678362 -22.377544 3.000000
v 20.678362 -22.377544 4.000000
v 12.257310 -5.535439 4.000000
v 8.514620 -5.535439 4.000000
v 23.485380 -35.476959 4.000000
v 23.485380 -35.476959 3.000000
v 23.485380 -27.991579 3.000000
v 21.614035 -24.248888 3.000000
v 26.292398 -22.377544 3.000000
v 25.356726 -24.248888 3.000000
v 27.228071 -20.506199 3.000000
v 30.970758 -20.506199 3.000000
v 26.292398 -22.377544 4.000000
v 21.614035 -24.248888 4.000000
v 23.485380 -27.991579 4.000000
v 25.356726 -24.248888 4.000000
v 30.970758 -20.506199 4.000000
v 27.228071 -20.506199 4.000000
v 30.970758 -26.120234 1.000000
v 30.970758 -26.120234 0.000000
v 27.228071 -20.506199 0.000000
v 30.879683 -27.156445 0.000000
v 30.615736 -28.230013 0.000000
v 30.119385 -29.494473 0.000000
v 17.871241 -24.249100 0.000000
v 29.369650 -30.896257 0.000000
v 28.333778 -32.440716 0.000000
v 26.983950 -34.122734 0.000000
v 25.661518 -35.560352 0.000000
v 24.227337 -36.962704 0.000000
v 20.678362 -18.634853 0.000000
v 26.292398 -18.634853 0.000000
v 30.879683 -27.156445 1.000000
v 30.615736 -28.230013 1.000000
v 30.119385 -29.494473 1.000000
v 29.369650 -30.896257 1.000000
v 28.333778 -32.440716 1.000000
v 26.983950 -34.122734 1.000000
v 25.661518 -35.560352 1.000000
v 24.227337 -36.962704 1.000000
v 20.989883 -30.487076 1.000000
v 20.989883 -30.487076 0.500000
v 27.228071 -20.506199 0.500000
v 26.292398 -18.634853 0.500000
v 20.678362 -18.634853 0.500000
v 17.871241 -24.249100 0.500000
v 23.485380 -13.020819 0.000000
v 25.356726 -16.763510 0.000000
v 21.614035 -16.763510 0.000000
v 25.356726 -16.763510 0.500000
v 23.485380 -13.020819 0.500000
v 21.614035 -16.763510 0.500000
vn 0.894427 -0.447214 0.000000
vn 0.894427 -0.447214 0.000000
vn 0.894427 -0.447214 0.000000
vn -0.894427 -0.447214 0.000000
vn -0.894427 -0.447214 0.000000
vn -0.894427 -0.447214 0.000000
vn -0.894427 -0.447214 0.000000
vn -0.894427 -0.447214 0.000000
vn -0.894427 -0.447214 0.000000
vn 0.000000 0.000000 -1.000000
vn 0.000000 0.000000 -1.000000
vn 0.000000 0.000000 -1.000000
vn 0.000000 0.000000 -1.000000
vn 0.000000 -0.000000 -1.000000
vn 0.000000 0.000000 -1.000000
vn 0.000000 0.000000 -1.000000
vn 0.000000 0.000000 -1.000000
vn 0.000000 0.000000 -1.000000
vn 0.000000 0.000000 -1.000000
vn 0.000000 0.000000 -1.000000
vn 0.000000 0.000000 1.000000
vn 0.000000 0.000000 1.000000
vn 0.000000 0.000000 1.000000
vn 0.000000 0.000000 1.000000
vn 0.000000 0.000000 1.000000
vn 0.000000 0.000000 1.000000
vn 0.000000 0.000000 1.000000
vn 0.000000 0.000000 1.000000
vn 0.000000 0.000000 1.000000
vn 0.000000 0.000000 1.000000
vn 0.000000 0.000000 -1.000000
vn 0.000000 0.000000 -1.000000
vn 0.000000 0.000000 -1.000000
vn 0.000000 0.000000 -1.000000
vn 0.000000 0.000000 -1.000000
vn 0.000000 -0.000000 -1.000000
vn 0.000000 0.000000 -1.000000
vn 0.000000 0.000000 -1.000000
vn 0.000000 0.000000 -1.000000
vn 0.000000 0.000000 -1.000000
vn 0.000000 0.000000 -1.000000
vn 0.000000 0.000000 -1.000000
vn 0.000000 0.000000 -1.000000
vn 1.000000 0.000000 0.000000
vn 1.000000 0.000000 -0.000000
vn 1.000000 0.000000 -0.000000
vn 0.000000 0.000000 1.000000
vn 0.000000 0.000000 1.000000
vn 0.000000 0.000000 1.000000
vn 0.000000 0.000000 1.000000
vn 0.000000 0.000000 1.000000
vn 0.000000 0.000000 1.000000
vn 0.000000 0.000000 1.000000
vn 0.000000 0.000000 1.000000
vn 0.000000 0.000000 1.000000
vn 0.000000 0.000000 1.000000
vn 0.000000 0.000000 1.000000
vn 0.000000 0.000000 1.000000
vn 0.000000 0.000000 1.000000
vn 0.000000 1.000000 0.000000
vn 0.000000 1.000000 -0.000000
vn -0.894427 0.447214 0.000000
vn -0.894427 0.447214 0.000000
vn -0.894427 0.447214 0.000000
vn -0.894427 0.447214 0.000000
vn 0.000000 1.000000 0.000000
vn 0.000000 1.000000 -0.000000
vn 0.894427 0.447214 0.000000
vn 0.894427 0.447214 -0.000000
vn -0.894427 0.447214 0.000000
vn -0.894427 0.447214 0.000000
vn 0.894427 0.447214 0.000000
vn 0.894427 0.447214 -0.000000
vn 0.000000 -1.000000 0.000000
vn 0.000000 -1.000000 0.000000
vn -0.284842 0.958574 0.000000
vn -0.284842 0.958574 0.000000
vn -0.343646 0.939099 0.000000
vn -0.343646 0.939099 0.000000
vn -0.398464 0.917184 0.000000
vn -0.398464 0.917184 0.000000
vn -0.444468 0.895795 0.000000
vn -0.444468 0.895795 0.000000
vn -0.894447 -0.447174 0.000000
vn -0.894447 -0.447174 0.000000
vn -0.894447 -0.447174 0.000000
vn -0.894447 -0.447174 0.000001
vn 0.435978 0.899957 0.000000
vn 0.435978 0.899957 -0.000000
vn 0.373593 0.927593 -0.000000
vn 0.373593 0.927593 0.000000
vn 0.313648 0.949539 -0.000000
vn 0.313648 0.949539 0.000000
vn 0.258283 0.966069 -0.000000
vn 0.258283 0.966069 0.000000
vn 0.219601 0.975590 -0.000000
vn 0.219601 0.975590 0.000000
vn 0.200884 0.979615 -0.000000
vn 0.200884 0.979615 0.000000
vn 0.707107 -0.707107 0.000000
vn 0.707107 -0.707107 0.000000
vn 0.000000 0.000000 1.000000
vn -0.435978 0.899957 0.000000
vn -0.435978 0.899957 0.000000
vn -0.373593 0.927593 0.000000
vn -0.373593 0.927593 0.000000
vn -0.313648 0.949539 0.000000
vn -0.313648 0.949539 0.000000
vn -0.258283 0.966069 0.000000
vn -0.258283 0.966069 0.000000
vn -0.219601 0.975590 0.000000
vn -0.219601 0.975590 0.000000
vn -0.200884 0.979615 0.000000
vn -0.200884 0.979615 0.000000
vn 0.284843 0.958574 -0.000000
vn 0.284843 0.958574 0.000000
vn 0.343646 0.939099 0.000000
vn 0.343646 0.939099 -0.000000
vn 0.398464 0.917184 0.000000
vn 0.398464 0.917184 -0.000000
vn 0.444468 0.895795 0.000000
vn 0.444468 0.895795 -0.000000
vn -1.000000 0.000000 0.000000
vn -1.000000 0.000000 0.000000
vn -1.000000 0.000000 0.000000
vn -1.000000 0.000000 0.000000
vn -1.000000 -0.000000 0.000000
vn 0.000000 0.000000 -1.000000
vn 0.000000 -0.000000 -1.000000
vn 0.000000 -0.000000 -1.000000
vn 0.000000 0.000000 -1.000000
vn 0.000000 0.000000 -1.000000
vn 0.000000 -0.000000 -1.000000
vn 0.000000 0.000000 -1.000000
vn 0.000000 0.000000 -1.000000
vn 0.000000 -0.000000 -1.000000
vn 0.000000 -0.000000 -1.000000
vn 0.000000 0.000000 -1.000000
vn 0.000000 -0.000000 -1.000000
vn 0.000000 0.000000 -1.000000
vn 0.000000 -0.000000 -1.000000
vn 0.000000 0.000000 -1.000000
vn 0.000000 0.000000 1.000000
vn 0.000000 0.000000 1.000000
vn 0.000000 0.000000 1.000000
vn 0.000000 0.000000 1.000000
vn 0.000000 0.000000 1.000000
vn 0.000000 0.000000 1.000000
vn 0.000000 0.000000 1.000000
vn 0.000000 0.000000 1.000000
vn 0.000000 0.000000 1.000000
vn 0.000000 0.000000 1.000000
vn 0.000000 0.000000 1.000000
vn 0.000000 0.000000 1.000000
vn 0.000000 0.000000 1.000000
vn 0.000000 0.000000 1.000000
vn 0.000000 0.000000 1.000000
vn 0.000000 0.000000 1.000000
vn 0.000000 0.000000 1.000000
vn 0.000000 0.000000 1.000000
vn 0.000000 0.000000 1.000000
vn 0.000000 0.000000 1.000000
vn 0.000000 0.000000 1.000000
vn 0.000000 0.000000 1.000000
vn 0.894447 -0.447174 0.000000
vn 0.894447 -0.447174 0.000000
vn 0.894447 -0.447174 0.000000
vn 0.894447 -0.447174 0.000000
vn 0.894447 -0.447174 0.000000
vn 0.894447 -0.447174 0.000000
vn 0.894447 -0.447174 0.000000
vn 0.894447 -0.447174 0.000001
vn 0.894447 -0.447174 -0.000001
vn 0.894447 -0.447174 0.000000
vn 0.894447 -0.447174 0.000000
vn 0.894447 -0.447174 -0.000001
vn 0.000000 0.000000 -1.000000
vn 0.000000 0.000000 -1.000000
vn 0.000000 0.000000 -1.000000
vn 0.000000 0.000000 -1.000000
vn 0.000000 0.000000 -1.000000
vn 0.000000 0.000000 -1.000000
vn 0.000000 0.000000 -1.000000
vn 0.000000 0.000000 -1.000000
vn 0.000000 0.000000 -1.000000
vn -0.996160 -0.087556 0.000000
vn -0.996160 -0.087556 0.000000
vn -0.971081 -0.238749 0.000000
vn -0.971081 -0.238749 0.000000
vn -0.930852 -0.365396 0.000000
vn -0.930852 -0.365396 0.000000
vn -0.881799 -0.471625 0.000000
vn -0.881799 -0.471625 0.000000
vn -0.830500 -0.557018 0.000000
vn -0.830500 -0.557018 0.000000
vn -0.779914 -0.625886 0.000000
vn -0.779914 -0.625886 0.000000
vn -0.735976 -0.677007 0.000000
vn -0.735976 -0.677007 0.000000
vn -0.699128 -0.714997 0.000000
vn -0.699128 -0.714997 0.000000
vn -0.707107 -0.707107 0.000000
vn -0.707107 -0.707107 0.000000
vn 0.936329 0.351123 0.000000
vn 0.936329 0.351123 -0.000000
vn -0.894427 -0.447214 0.000000
vn -0.894427 -0.447214 0.000000
vn 0.894427 -0.447214 0.000000
vn 0.894427 -0.447214 0.000000
vn 0.894427 0.447214 -0.000000
vn 0.894427 0.447214 0.000001
vn 0.894427 0.447214 0.000000
vn 0.000000 1.000000 -0.000000
vn 0.000000 1.000000 0.000000
vn -0.894427 -0.447214 0.000000
vn -0.894427 -0.447214 0.000001
vn -0.894427 -0.447214 0.000000
vn 0.707107 0.707107 0.000000
vn 0.707107 0.707107 -0.000000
vn 0.000000 0.000000 -1.000000
vn 0.000000 0.000000 -1.000000
vn 0.000000 0.000000 -1.000000
vn 0.000000 0.000000 -1.000000
vn 0.000000 0.000000 -1.000000
vn 0.000000 0.000000 -1.000000
vn 0.000000 0.000000 -1.000000
vn 0.000000 0.000000 -1.000000
vn 0.000000 0.000000 -1.000000
vn 0.000000 -0.000000 -1.000000
vn 0.000000 -0.000000 -1.000000
vn 0.000000 0.000000 -1.000000
vn 0.000000 -0.000000 -1.000000
vn 0.000000 1.000000 -0.000000
vn 0.000000 1.000000 0.000000
vn 0.000000 0.000000 1.000000
vn 0.000000 0.000000 1.000000
vn 0.000000 0.000000 1.000000
vn 0.000000 0.000000 1.000000
vn 0.000000 0.000000 1.000000
vn 0.000000 0.000000 1.000000
vn 0.000000 0.000000 1.000000
vn 0.000000 0.000000 1.000000
vn 0.000000 0.000000 1.000000
vn 0.000000 0.000000 1.000000
vn 0.894427 -0.447214 0.000000
vn 0.894427 -0.447214 0.000000
vn -0.894427 0.447214 0.000000
vn -0.894427 0.447214 0.000000
vn 0.000000 1.000000 -0.000000
vn 0.000000 1.000000 0.000000
vn 0.894427 0.447214 -0.000000
vn 0.894427 0.447214 0.000000
vn -0.894427 0.447214 0.000000
vn -0.894427 0.447214 0.000000
vn 0.000000 -1.000000 0.000000
vn 0.000000 -1.000000 0.000000
vn 1.000000 -0.000000 0.000000
vn 1.000000 -0.000000 0.000000
vn 1.000000 -0.000000 0.000000
vn 0.000000 0.000000 -1.000000
vn 0.000000 0.000000 -1.000000
vn 0.000000 0.000000 -1.000000
vn 0.000000 0.000000 -1.000000
vn 0.000000 0.000000 -1.000000
vn 0.000000 0.000000 -1.000000
vn 0.000000 0.000000 -1.000000
vn 0.000000 0.000000 -1.000000
vn 0.000000 0.000000 -1.000000
vn 0.000000 0.000000 -1.000000
vn 0.000000 0.000000 -1.000000
vn 0.000000 -0.000000 -1.000000
vn 0.996160 -0.087556 0.000000
vn 0.996160 -0.087556 0.000000
vn 0.971081 -0.238749 0.000000
vn 0.971081 -0.238749 0.000000
vn 0.930852 -0.365397 0.000000
vn 0.930852 -0.365397 0.000000
vn 0.881800 -0.471624 0.000000
vn 0.881800 -0.471624 0.000000
vn 0.830500 -0.557018 0.000000
vn 0.830500 -0.557018 0.000000
vn 0.779915 -0.625886 0.000000
vn 0.779915 -0.625886 0.000000
vn 0.735976 -0.677007 0.000000
vn 0.735976 -0.677007 0.000000
vn 0.699128 -0.714997 0.000000
vn 0.699128 -0.714997 0.000000
vn 0.000000 0.000000 1.000000
vn 0.000000 0.000000 1.000000
vn 0.000000 0.000000 1.000000
vn 0.000000 0.000000 1.000000
vn 0.000000 0.000000 1.000000
vn 0.000000 0.000000 1.000000
vn 0.000000 0.000000 1.000000
vn 0.000000 0.000000 1.000000
vn 0.000000 -0.000000 1.000000
vn -0.707107 0.707107 0.000000
vn -0.707107 0.707107 0.000000
vn 0.000000 1.000000 -0.000000
vn 0.000000 1.000000 0.000000
vn 0.894427 0.447214 -0.000000
vn 0.894427 0.447214 0.000000
vn 0.000000 1.000000 -0.000000
vn 0.000000 1.000000 0.000000
vn -0.894427 0.447213 0.000000
vn -0.894427 0.447213 0.000000
vn -0.894447 -0.447174 0.000000
vn -0.894447 -0.447174 0.000000
vn -0.894447 -0.447174 0.000000
vn -0.894447 -0.447174 0.000002
vn 0.000000 0.000000 1.000000
vn 0.000000 0.000000 1.000000
vn 0.000000 0.000000 1.000000
vn 0.000000 0.000000 1.000000
vn 0.000000 -0.000000 -1.000000
vn 0.894427 0.447214 -0.000000
vn 0.894427 0.447214 0.000000
vn -0.894427 0.447214 0.000000
vn -0.894427 0.447214 0.000000
vn 0.000000 -1.000000 0.000000
vn 0.000000 -1.000000 0.000000
vn 0.000000 0.000000 1.000000
f 1//1 2//1 3//1
f 4//2 5//2 2//2
f 4//3 2//3 1//3
f 5//4 6//4 2//4
f 2//5 6//5 7//5
f 2//6 7//6 3//6
f 3//7 7//7 8//7
f 9//8 4//8 1//8
f 9//9 1//9 10//9
f 11//10 4//10 12//10
f 13//11 4//11 11//11
f 14//12 11//12 15//12
f 14//13 13//13 11//13
f 16//14 5//14 17//14
f 9//15 18//15 14//15
f 9//16 15//16 12//16
f 9//17 14//17 15//17
f 9//18 12//18 4//18
f 5//19 4//19 13//19
f 5//20 13//20 17//20
f 1//21 19//21 20//21
f 1//22 21//22 19//22
f 19//23 22//23 23//23
f 21//24 22//24 19//24
f 3//25 24//25 21//25
f 25//26 10//26 22//26
f 23//27 10//27 20//27
f 20//28 10//28 1//28
f 22//29 10//29 23//29
f 1//30 3//30 21//30
f 26//31 27//31 6//31
f 5//32 28//32 26//32
f 5//33 26//33 6//33
f 29//34 28//34 5//34
f 16//35 29//35 5//35
f 30//36 29//36 16//36
f 31//37 30//37 16//37
f 32//38 33//38 31//38
f 32//39 31//39 16//39
f 34//40 32//40 16//40
f 35//41 16//41 17//41
f 35//42 34//42 16//42
f 36//43 35//43 17//43
f 7//44 27//44 37//44
f 7//45 37//45 8//45
f 6//46 27//46 7//46
f 37//47 38//47 8//47
f 39//48 3//48 38//48
f 38//49 3//49 8//49
f 39//50 40//50 3//50
f 40//51 24//51 3//51
f 40//52 41//52 24//52
f 41//53 42//53 24//53
f 43//54 44//54 42//54
f 42//55 44//55 24//55
f 24//56 45//56 46//56
f 44//57 45//57 24//57
f 45//58 47//58 46//58
f 47//59 48//59 46//59
f 18//60 9//60 10//60
f 18//61 10//61 25//61
f 49//62 13//62 21//62
f 17//63 13//63 49//63
f 24//64 49//64 21//64
f 50//65 49//65 24//65
f 13//66 14//66 22//66
f 13//67 22//67 21//67
f 14//68 18//68 25//68
f 14//69 25//69 22//69
f 11//70 12//70 20//70
f 11//71 20//71 19//71
f 12//72 15//72 23//72
f 12//73 23//73 20//73
f 15//74 11//74 19//74
f 15//75 19//75 23//75
f 35//76 36//76 48//76
f 35//77 48//77 47//77
f 34//78 47//78 45//78
f 34//79 35//79 47//79
f 32//80 45//80 44//80
f 32//81 34//81 45//81
f 33//82 44//82 43//82
f 33//83 32//83 44//83
f 51//84 17//84 49//84
f 48//85 51//85 46//85
f 36//86 51//86 48//86
f 36//87 17//87 51//87
f 31//88 33//88 43//88
f 31//89 43//89 42//89
f 30//90 42//90 41//90
f 30//91 31//91 42//91
f 29//92 41//92 40//92
f 29//93 30//93 41//93
f 28//94 40//94 39//94
f 28//95 29//95 40//95
f 26//96 39//96 38//96
f 26//97 28//97 39//97
f 27//98 38//98 37//98
f 27//99 26//99 38//99
f 51//100 24//100 46//100
f 51//101 50//101 24//101
f 50//102 51//102 49//102
f 52//103 53//103 54//103
f 54//104 53//104 55//104
f 55//105 56//105 57//105
f 53//106 56//106 55//106
f 57//107 58//107 59//107
f 56//108 58//108 57//108
f 59//109 60//109 61//109
f 58//110 60//110 59//110
f 60//111 62//111 61//111
f 60//112 63//112 62//112
f 62//113 64//113 65//113
f 63//114 64//114 62//114
f 66//115 67//115 68//115
f 68//116 67//116 69//116
f 69//117 70//117 71//117
f 67//118 70//118 69//118
f 71//119 72//119 73//119
f 70//120 72//120 71//120
f 73//121 52//121 54//121
f 72//122 52//122 73//122
f 64//123 74//123 65//123
f 64//124 75//124 74//124
f 74//125 76//125 65//125
f 75//126 77//126 74//126
f 74//127 77//127 76//127
f 64//128 63//128 75//128
f 60//129 78//129 63//129
f 63//130 78//130 75//130
f 60//131 58//131 78//131
f 78//132 79//132 80//132
f 58//133 79//133 78//133
f 58//134 56//134 79//134
f 56//135 53//135 79//135
f 52//136 72//136 53//136
f 53//137 72//137 79//137
f 79//138 70//138 81//138
f 72//139 70//139 79//139
f 70//140 67//140 81//140
f 67//141 66//141 81//141
f 82//142 78//142 80//142
f 76//143 83//143 84//143
f 85//144 84//144 86//144
f 85//145 86//145 87//145
f 85//146 87//146 88//146
f 85//147 88//147 89//147
f 85//148 89//148 90//148
f 85//149 90//149 91//149
f 85//150 76//150 84//150
f 62//151 65//151 76//151
f 92//152 61//152 62//152
f 92//153 76//153 85//153
f 92//154 62//154 76//154
f 59//155 61//155 92//155
f 93//156 59//156 92//156
f 57//157 59//157 93//157
f 55//158 57//158 93//158
f 73//159 54//159 55//159
f 73//160 55//160 93//160
f 71//161 73//161 93//161
f 69//162 93//162 94//162
f 69//163 71//163 93//163
f 68//164 69//164 94//164
f 95//165 96//165 91//165
f 95//166 97//166 96//166
f 96//167 85//167 91//167
f 96//168 98//168 85//168
f 98//169 99//169 85//169
f 82//170 80//170 98//170
f 98//171 80//171 99//171
f 99//172 94//172 85//172
f 100//173 68//173 94//173
f 81//174 66//174 100//174
f 100//175 66//175 68//175
f 99//176 100//176 94//176
f 77//177 97//177 101//177
f 101//178 97//178 102//178
f 102//179 97//179 103//179
f 103//180 97//180 104//180
f 104//181 97//181 105//181
f 105//182 97//182 106//182
f 106//183 97//183 107//183
f 107//184 97//184 95//184
f 77//185 75//185 97//185
f 77//186 101//186 76//186
f 76//187 101//187 83//187
f 83//188 102//188 84//188
f 101//189 102//189 83//189
f 84//190 103//190 86//190
f 102//191 103//191 84//191
f 86//192 104//192 87//192
f 103//193 104//193 86//193
f 87//194 105//194 88//194
f 104//195 105//195 87//195
f 88//196 106//196 89//196
f 105//197 106//197 88//197
f 89//198 107//198 90//198
f 106//199 107//199 89//199
f 90//200 95//200 91//200
f 107//201 95//201 90//201
f 79//202 81//202 100//202
f 79//203 100//203 108//203
f 80//204 79//204 108//204
f 80//205 108//205 99//205
f 78//206 82//206 98//206
f 78//207 98//207 109//207
f 75//208 78//208 109//208
f 75//209 109//209 74//209
f 110//210 94//210 111//210
f 94//211 112//211 111//211
f 94//212 93//212 112//212
f 93//213 92//213 112//213
f 112//214 92//214 113//214
f 92//215 85//215 113//215
f 85//216 114//216 113//216
f 85//217 115//217 114//217
f 96//218 75//218 74//218
f 97//219 75//219 96//219
f 74//220 98//220 96//220
f 74//221 109//221 98//221
f 108//222 100//222 99//222
f 85//223 116//223 115//223
f 85//224 117//224 116//224
f 85//225 110//225 117//225
f 85//226 94//226 110//226
f 117//227 118//227 119//227
f 110//228 118//228 117//228
f 120//229 121//229 118//229
f 119//230 121//230 116//230
f 116//231 121//231 115//231
f 118//232 121//232 119//232
f 118//233 110//233 122//233
f 122//234 110//234 111//234
f 123//235 114//235 124//235
f 111//236 114//236 123//236
f 122//237 123//237 125//237
f 122//238 111//238 123//238
f 112//239 113//239 111//239
f 126//240 127//240 122//240
f 126//241 125//241 124//241
f 126//242 124//242 114//242
f 126//243 122//243 125//243
f 113//244 114//244 111//244
f 115//245 121//245 114//245
f 114//246 121//246 126//246
f 120//247 118//247 127//247
f 127//248 118//248 122//248
f 121//249 120//249 126//249
f 126//250 120//250 127//250
f 116//251 117//251 124//251
f 124//252 117//252 123//252
f 119//253 116//253 125//253
f 125//254 116//254 124//254
f 117//255 119//255 123//255
f 123//256 119//256 125//256
f 128//257 7//257 8//257
f 129//258 6//258 7//258
f 129//259 7//259 128//259
f 130//260 6//260 129//260
f 130//261 129//261 131//261
f 130//262 131//262 132//262
f 130//263 132//263 133//263
f 134//264 133//264 135//264
f 134//265 135//265 136//265
f 134//266 136//266 137//266
f 134//267 137//267 138//267
f 134//268 138//268 139//268
f 134//269 130//269 133//269
f 140//270 141//270 130//270
f 140//271 130//271 134//271
f 131//272 129//272 128//272
f 131//273 128//273 142//273
f 132//274 142//274 143//274
f 132//275 131//275 142//275
f 133//276 143//276 144//276
f 133//277 132//277 143//277
f 135//278 144//278 145//278
f 135//279 133//279 144//279
f 136//280 145//280 146//280
f 136//281 135//281 145//281
f 137//282 146//282 147//282
f 137//283 136//283 146//283
f 138//284 147//284 148//284
f 138//285 137//285 147//285
f 149//286 138//286 148//286
f 139//287 138//287 149//287
f 128//288 150//288 142//288
f 142//289 150//289 143//289
f 143//290 150//290 144//290
f 144//291 150//291 145//291
f 145//292 150//292 146//292
f 146//293 150//293 147//293
f 147//294 150//294 148//294
f 148//295 150//295 149//295
f 128//296 8//296 150//296
f 7//297 150//297 8//297
f 7//298 151//298 150//298
f 6//299 130//299 7//299
f 7//300 130//300 152//300
f 130//301 141//301 152//301
f 152//302 141//302 153//302
f 141//303 140//303 153//303
f 153//304 140//304 154//304
f 140//305 134//305 154//305
f 154//306 134//306 155//306
f 151//307 139//307 149//307
f 151//308 149//308 150//308
f 134//309 151//309 155//309
f 134//310 139//310 151//310
f 7//311 152//311 151//311
f 152//312 155//312 151//312
f 153//313 154//313 152//313
f 152//314 154//314 155//314
f 156//315 157//315 158//315
f 157//316 156//316 159//316
f 159//317 156//317 160//317
f 156//318 158//318 160//318
f 160//319 158//319 161//319
f 158//320 157//320 161//320
f 161//321 157//321 159//321
f 159//322 160//322 161//322
