# Created by FreeCAD <http://www.freecadweb.org>
v 19.742691 -35.476959 3.000000
v 23.485380 -35.476959 3.000000
v 19.742691 -35.476959 4.000000
v 23.485380 -35.476959 4.000000
v 19.274855 -34.541286 3.000000
v 19.274855 -34.541286 4.000000
v 19.742691 -27.991579 3.000000
v 19.742691 -27.991579 4.000000
v 18.081884 -41.797897 3.000000
v 14.089836 -41.883003 3.000000
v 16.000000 -42.962337 3.000000
v 12.182858 -40.604893 3.000000
v 20.177053 -40.419483 3.000000
v 22.391109 -38.735790 3.000000
v 9.931569 -38.861954 3.000000
v 16.000000 -27.991579 3.000000
v 7.772661 -36.962704 3.000000
v 24.289610 -37.083168 3.000000
v 14.128759 -24.249098 3.000000
v 26.009392 -35.376877 3.000000
v 27.488701 -33.686821 3.000000
v 19.742689 -27.991579 3.000000
v 28.695377 -32.068748 3.000000
v 29.624147 -30.559818 3.000000
v 30.289021 -29.179514 3.000000
v 30.714880 -27.933231 3.000000
v 30.905458 -27.010988 3.000000
v 30.970758 -26.120234 3.000000
v 16.000000 -20.506201 3.000000
v 27.349781 -4.760341 3.000000
v 24.256578 -3.991212 3.000000
v 30.970758 -5.535439 3.000000
v 5.707602 -18.634853 4.000000
v 1.029240 -20.506199 4.000000
v 4.771930 -20.506199 4.000000
v 19.274855 -34.541286 4.000000
v 6.643275 -16.763510 4.000000
v 16.000000 -27.991579 4.000000
v 11.321638 -18.634853 4.000000
v 10.385965 -16.763510 4.000000
v 8.514620 -13.020819 4.000000
v 8.514620 -5.535439 4.000000
v 19.274855 -34.541286 3.000000
v 19.742689 -27.991579 4.000000
v 30.970758 -5.535439 2.000000
v 27.349781 -4.760341 2.000000
v 24.256578 -3.991212 2.000000
v 30.970758 -26.120234 2.500000
v 30.970758 -20.506199 2.500000
v 30.970758 -20.506199 2.000000
v 16.000000 -42.962337 2.000000
v 16.689169 -42.600319 2.000000
v 17.383795 -42.211704 2.000000
v 18.107697 -41.782158 2.000000
v 18.843710 -41.320274 2.000000
v 19.587627 -40.827892 2.000000
v 20.334913 -40.307335 2.000000
v 21.080801 -39.761383 2.000000
v 21.820433 -39.193192 2.000000
v 22.476688 -38.665722 2.000000
v 23.120472 -38.125786 2.000000
v 23.748573 -37.576118 2.000000
v 24.230778 -37.137691 2.000000
v 24.703493 -36.692966 2.500000
v 24.703493 -36.692966 2.000000
v 25.985651 -35.402092 2.500000
v 27.195189 -34.043137 2.500000
v 28.473124 -32.389240 2.500000
v 29.456257 -30.858490 2.500000
v 30.168722 -29.461512 2.500000
v 30.640276 -28.195932 2.500000
v 30.881010 -27.169754 2.500000
v 7.772661 -36.962704 2.000000
v 9.931569 -38.861954 2.000000
v 12.182858 -40.604893 2.000000
v 14.089836 -41.883003 2.000000
v 19.742414 -13.020543 2.500000
v 19.742414 -13.020543 2.000000
v 17.069290 -18.367386 2.500000
v 16.000000 -20.506201 2.500000
v 17.069290 -18.367386 2.000000
v 16.000000 -20.506201 2.000000
v 11.010116 -30.487076 2.500000
v 11.010116 -30.487076 2.000000
v 11.321638 -18.634853 3.000000
v 8.514620 -5.535439 3.000000
v 1.029240 -20.506199 3.000000
v 5.707602 -18.634853 3.000000
v 4.771930 -20.506199 3.000000
v 6.643275 -16.763510 3.000000
v 8.514620 -13.020819 3.000000
v 10.385965 -16.763510 3.000000
v 27.228071 -20.506199 2.000000
v 23.485380 -35.476959 2.500000
v 27.228071 -20.506199 2.500000
v 20.618055 -40.095016 2.000000
v 21.955498 -39.078640 2.000000
v 24.046656 -37.299919 2.000000
v 23.485380 -35.476959 2.000000
v 24.698830 -36.690411 2.000000
v 23.380327 -37.894127 2.000000
v 22.678232 -38.491726 2.000000
v 21.291996 -39.593796 2.000000
v 16.935673 -22.377544 2.000000
v 16.935673 -22.377544 2.500000
v 20.618055 -40.095016 2.500000
v 22.486917 -38.649792 2.500000
v 23.614119 -37.688759 2.500000
v 24.698830 -36.690411 2.500000
v 26.292398 -18.634853 0.000000
v 30.970760 -20.506199 0.000000
v 27.228071 -20.506199 0.000000
v 8.514620 -35.476959 0.000000
v 12.725146 -34.541286 0.000000
v 12.257310 -35.476959 0.000000
v 25.356726 -16.763510 0.000000
v 12.257310 -27.991579 0.000000
v 17.871241 -24.249100 0.000000
v 16.000000 -27.991579 0.000000
v 20.678362 -18.634853 0.000000
v 21.614035 -16.763510 0.000000
v 23.485380 -13.020819 0.000000
v 23.485380 -5.535439 0.000000
v 13.918114 -41.797897 0.000000
v 17.910162 -41.883003 0.000000
v 15.999998 -42.962337 0.000000
v 19.817141 -40.604893 0.000000
v 11.822945 -40.419483 0.000000
v 9.608890 -38.735790 0.000000
v 12.725145 -34.541286 0.000000
v 22.068430 -38.861954 0.000000
v 24.227337 -36.962704 0.000000
v 7.710388 -37.083168 0.000000
v 5.990606 -35.376877 0.000000
v 4.511297 -33.686821 0.000000
v 3.304621 -32.068748 0.000000
v 1.029239 -26.120234 0.000000
v 1.285118 -27.933231 0.000000
v 1.094540 -27.010988 0.000000
v 1.029241 -20.506199 0.000000
v 1.710978 -29.179514 0.000000
v 2.375852 -30.559818 0.000000
v 12.257310 -27.991579 1.000000
v 8.514620 -35.476959 0.500000
v 8.514620 -35.476959 1.000000
v 12.257311 -27.991579 0.000000
v 12.257311 -27.991579 1.000000
v 23.485380 -5.535439 1.000000
v 17.871241 -24.249100 0.500000
v 20.678362 -18.634853 1.000000
v 16.000000 -27.991579 1.000000
v 16.000000 -27.991579 0.500000
v 30.970760 -20.506199 1.000000
v 26.292398 -18.634853 1.000000
v 27.228071 -20.506199 1.000000
v 25.356726 -16.763510 1.000000
v 23.485380 -13.020819 1.000000
v 21.614035 -16.763510 1.000000
v 1.029240 -20.506203 0.500000
v 1.029239 -26.120234 0.500000
v 15.999998 -42.962337 1.000000
v 15.310829 -42.600319 1.000000
v 14.616204 -42.211704 1.000000
v 13.892303 -41.782158 1.000000
v 13.156288 -41.320274 1.000000
v 12.412370 -40.827892 1.000000
v 11.665086 -40.307335 1.000000
v 10.919197 -39.761383 1.000000
v 10.179564 -39.193192 1.000000
v 9.523310 -38.665722 1.000000
v 8.879525 -38.125786 1.000000
v 8.251425 -37.576118 1.000000
v 7.769221 -37.137691 1.000000
v 7.296506 -36.692966 0.500000
v 7.296506 -36.692966 1.000000
v 6.014348 -35.402092 0.500000
v 4.804810 -34.043137 0.500000
v 3.526875 -32.389240 0.500000
v 2.543740 -30.858490 0.500000
v 1.831276 -29.461512 0.500000
v 1.359722 -28.195932 0.500000
v 1.118988 -27.169754 0.500000
v 24.227337 -36.962704 1.000000
v 22.068430 -38.861954 1.000000
v 19.817141 -40.604893 1.000000
v 17.910162 -41.883003 1.000000
v 20.989883 -30.487076 0.500000
v 20.989883 -30.487076 1.000000
v 12.725146 -34.541286 1.000000
v 12.257310 -35.476959 1.000000
v 12.257310 -35.476959 0.500000
v 11.381945 -40.095016 0.500000
v 9.513083 -38.649792 0.500000
v 12.725145 -34.541286 0.500000
v 8.385881 -37.688759 0.500000
v 7.301169 -36.690411 0.500000
v 11.381945 -40.095016 1.000000
v 10.044503 -39.078640 1.000000
v 7.953344 -37.299919 1.000000
v 7.301169 -36.690411 1.000000
v 8.619673 -37.894127 1.000000
v 9.321768 -38.491726 1.000000
v 10.708005 -39.593796 1.000000
v 12.725145 -34.541286 1.000000
v 12.257585 -13.020544 0.500000
v 7.743419 -3.991212 0.000000
v 7.743419 -3.991212 1.000000
v 12.257585 -13.020544 1.000000
v 14.128757 -16.763306 0.000000
v 14.128757 -16.763306 0.500000
v 4.771930 -20.506199 0.000000
v 11.321638 -22.377544 0.000000
v 5.707603 -22.377544 0.000000
v 4.650217 -4.760341 0.000000
v 1.029239 -5.535439 0.000000
v 11.321638 -22.377544 0.500000
v 4.771930 -20.506199 0.500000
v 5.707603 -22.377544 0.500000
v 4.771930 -20.506199 1.000000
v 4.650217 -4.760341 1.000000
v 1.029239 -5.535439 1.000000
v 1.029240 -20.506203 1.000000
v 6.643275 -24.248888 0.000000
v 10.385965 -24.248888 0.000000
v 8.514620 -27.991579 0.000000
v 8.514620 -27.991579 0.500000
v 10.385965 -24.248888 0.500000
v 6.643275 -24.248888 0.500000
vn 0.000000 -1.000000 0.000000
vn 0.000000 -1.000000 0.000000
vn -0.894427 -0.447214 0.000000
vn -0.894427 -0.447214 0.000000
vn 0.894427 0.447214 -0.000000
vn 0.894427 0.447214 0.000000
vn 0.000000 0.000000 1.000000
vn 0.000000 0.000000 1.000000
vn 0.000000 0.000000 1.000000
vn 0.000000 0.000000 1.000000
vn 0.000000 0.000000 1.000000
vn 0.000000 0.000000 1.000000
vn 0.000000 0.000000 1.000000
vn 0.000000 0.000000 1.000000
vn 0.000000 0.000000 1.000000
vn 0.000000 0.000000 1.000000
vn 0.000000 0.000000 1.000000
vn 0.000000 0.000000 1.000000
vn 0.000000 0.000000 1.000000
vn 0.000000 0.000000 1.000000
vn 0.000000 0.000000 1.000000
vn 0.000000 0.000000 1.000000
vn 0.000000 0.000000 1.000000
vn 0.000000 0.000000 1.000000
vn 0.000000 0.000000 1.000000
vn 0.000000 0.000000 1.000000
vn 0.000000 0.000000 1.000000
vn 0.000000 0.000000 1.000000
vn 0.000000 0.000000 1.000000
vn 0.000000 0.000000 1.000000
vn 0.000000 0.000000 1.000000
vn 0.000000 0.000000 1.000000
vn 0.000000 0.000000 1.000000
vn 0.000000 0.000000 1.000000
vn 0.000000 0.000000 1.000000
vn 0.000000 0.000000 1.000000
vn 0.000000 0.000000 1.000000
vn 0.000000 0.000000 1.000000
vn 0.000000 0.000000 1.000000
vn 0.000000 0.000000 1.000000
vn 0.000000 0.000000 1.000000
vn 0.000000 0.000000 1.000000
vn 0.000000 0.000000 1.000000
vn 0.000000 0.000000 1.000000
vn 0.000000 0.000000 0.000000
vn 0.000000 -0.000000 0.000000
vn 0.000000 1.000000 -0.000000
vn 0.000000 1.000000 0.000000
vn 0.209316 0.977848 -0.000000
vn 0.209316 0.977848 0.000000
vn 0.241304 0.970450 -0.000000
vn 0.241304 0.970450 0.000000
vn 1.000000 0.000000 0.000000
vn 1.000000 0.000000 -0.000000
vn 1.000000 0.000000 0.000000
vn 1.000000 -0.000000 0.000000
vn 0.465040 -0.885290 0.000000
vn 0.488050 -0.872578 0.020376
vn 0.488141 -0.872523 0.020542
vn 0.510301 -0.859996 -0.000364
vn 0.531550 -0.847027 0.000389
vn 0.549514 -0.835253 0.019698
vn 0.551868 -0.833792 0.015243
vn 0.571586 -0.820540 -0.001792
vn 0.590635 -0.806934 0.002741
vn 0.605151 -0.795773 0.023205
vn 0.609132 -0.792925 0.015067
vn 0.626478 -0.779438 -0.001001
vn 0.642604 -0.766198 0.001307
vn 0.656459 -0.754128 0.018776
vn 0.658487 -0.752449 0.014654
vn 0.672722 -0.739895 0.000764
vn 0.685574 -0.728003 -0.000641
vn 0.685215 -0.728341 0.000000
vn 0.704021 -0.709587 0.029001
vn 0.709497 -0.704706 0.001850
vn 0.752177 -0.658382 0.027637
vn 0.746977 -0.664847 -0.001939
vn 0.801344 -0.597601 0.026849
vn 0.790975 -0.611171 -0.028782
vn 0.851295 -0.523985 0.027150
vn 0.841088 -0.540193 -0.027615
vn 0.900577 -0.433795 0.027983
vn 0.890491 -0.454155 -0.027724
vn 0.945891 -0.323215 0.028683
vn 0.936685 -0.349008 -0.028524
vn 0.973259 -0.228319 -0.025259
vn 0.979178 -0.202344 0.016372
vn 0.996130 -0.085183 -0.021659
vn 0.997324 -0.073112 0.000000
vn -0.660512 -0.750815 0.000000
vn -0.660512 -0.750815 0.000000
vn -0.612175 -0.790723 0.000000
vn -0.612175 -0.790723 0.000000
vn -0.556747 -0.830682 0.000000
vn -0.556747 -0.830682 0.000000
vn -0.491945 -0.870626 0.000000
vn -0.491945 -0.870626 0.000000
vn -0.894447 0.447174 0.000000
vn -0.894447 0.447174 0.000000
vn -0.894447 0.447174 -0.000003
vn -0.894447 0.447174 -0.000002
vn -0.894447 0.447174 0.000000
vn -0.894447 0.447174 0.000000
vn -0.894447 0.447174 0.000000
vn -0.894447 0.447174 0.000000
vn -0.894447 0.447174 0.000001
vn -0.894447 0.447174 0.000000
vn -0.894447 0.447174 0.000000
vn -0.894447 0.447174 0.000001
vn -0.894427 -0.447213 0.000000
vn -0.894427 -0.447214 0.000000
vn -0.894427 -0.447214 0.000000
vn -0.894427 -0.447214 0.000000
vn -0.894427 -0.447214 0.000000
vn 0.894427 0.447214 -0.000000
vn 0.894427 0.447214 -0.000000
vn 0.894427 0.447214 0.000000
vn -0.894427 0.447214 0.000000
vn -0.894427 0.447214 0.000000
vn 0.000000 -1.000000 0.000000
vn 0.000000 -1.000000 0.000000
vn 0.000000 -1.000000 0.000000
vn 0.000000 -1.000000 0.000000
vn 0.894427 -0.447213 0.000000
vn 0.894427 -0.447213 0.000000
vn 0.894427 -0.447214 0.000000
vn 0.894427 -0.447214 0.000000
vn 0.000000 1.000000 -0.000000
vn 0.000000 1.000000 0.000000
vn -0.894427 -0.447214 0.000000
vn -0.894427 -0.447214 0.000000
vn 0.000000 -0.000000 -1.000000
vn 0.000000 0.000000 -1.000000
vn 0.000000 0.000000 -1.000000
vn 0.000000 -0.000000 -1.000000
vn 0.000000 0.000000 -1.000000
vn 0.000000 0.000000 -1.000000
vn 0.000000 0.000000 -1.000000
vn 0.000000 -0.000000 -1.000000
vn 0.000000 0.000000 -1.000000
vn 0.000000 0.000000 -1.000000
vn 0.000000 0.000000 -1.000000
vn 0.000000 0.000000 -1.000000
vn 0.000000 0.000000 -1.000000
vn 0.000000 0.000000 -1.000000
vn 0.000000 0.000000 -1.000000
vn 0.000000 0.000000 -1.000000
vn 0.000000 -1.000000 0.000000
vn 0.000000 -1.000000 0.000000
vn 0.000000 0.000000 -1.000000
vn 0.000000 0.000000 -1.000000
vn 0.000000 0.000000 -1.000000
vn 0.000000 0.000000 -1.000000
vn 0.000000 0.000000 -1.000000
vn 0.000000 0.000000 -1.000000
vn 0.000000 0.000000 -1.000000
vn 0.000000 0.000000 -1.000000
vn 0.000000 0.000000 -1.000000
vn 0.000000 0.000000 -1.000000
vn 0.000000 0.000000 -1.000000
vn 0.000000 -0.000000 -1.000000
vn 0.000000 -0.000000 -1.000000
vn 0.000000 0.000000 -1.000000
vn 0.000000 -0.000000 -1.000000
vn 0.000000 0.000000 -1.000000
vn 0.000000 0.000000 -1.000000
vn 0.000000 0.000000 -1.000000
vn 0.000000 0.000000 -1.000000
vn 0.000000 0.000000 -1.000000
vn 0.000000 0.000000 -1.000000
vn 0.000000 0.000000 -1.000000
vn 0.000000 0.000000 -1.000000
vn 0.000000 0.000000 -1.000000
vn 0.000000 0.000000 -1.000000
vn 0.706495 0.707718 0.000000
vn 0.706495 0.707718 -0.000000
vn -0.707107 -0.707107 0.000000
vn -0.707107 -0.707107 0.000000
vn 0.936329 0.351123 0.000000
vn 0.936329 0.351123 -0.000000
vn 0.000000 0.000000 -1.000000
vn 0.000000 0.000000 -1.000000
vn -0.894427 -0.447214 0.000000
vn -0.894427 -0.447214 0.000000
vn 0.000000 0.000000 -1.000000
vn 0.000000 0.000000 -1.000000
vn 0.000000 0.000000 -1.000000
vn 0.000000 0.000000 -1.000000
vn 0.000000 0.000000 -1.000000
vn 0.000000 0.000000 -1.000000
vn 0.707107 0.707107 0.000000
vn 0.707107 0.707107 -0.000000
vn 0.000000 0.000000 -1.000000
vn 0.000000 0.000000 -1.000000
vn 0.000000 -0.000000 -1.000000
vn 0.000000 0.000000 -1.000000
vn 0.000000 0.000000 -1.000000
vn 0.000000 0.000000 -1.000000
vn 0.000000 0.000000 -1.000000
vn 0.000000 0.000000 -1.000000
vn 0.000000 0.000000 -1.000000
vn 0.000000 0.000000 -1.000000
vn -0.596768 0.802414 0.000000
vn -0.613070 0.789612 -0.025652
vn -0.611436 0.790665 -0.031547
vn -0.630388 0.776269 0.004198
vn -0.648762 0.760936 -0.009194
vn -0.648146 0.761481 -0.007272
vn -0.665555 0.746335 0.004655
vn -0.677146 0.735723 -0.013625
vn -0.682805 0.730601 0.000000
vn -0.707107 -0.707106 0.000000
vn -0.707107 -0.707106 0.000000
vn -0.894427 -0.447214 0.000000
vn -0.894427 -0.447214 0.000000
vn 0.000000 0.000000 -1.000000
vn 0.000000 0.000000 -1.000000
vn 0.000000 0.000000 -1.000000
vn 0.000000 0.000000 -1.000000
vn 0.000000 0.000000 -1.000000
vn 0.000000 -0.000000 -1.000000
vn 0.000000 0.000000 -1.000000
vn 0.000000 0.000000 -1.000000
vn 0.000000 -0.000000 -1.000000
vn 0.000000 0.000000 -1.000000
vn 0.000000 -0.000000 -1.000000
vn 0.000000 0.000000 -1.000000
vn 0.000000 0.000000 -1.000000
vn 0.000000 0.000000 -1.000000
vn 0.000000 0.000000 -1.000000
vn 0.000000 0.000000 -1.000000
vn 0.000000 -0.000000 -1.000000
vn 0.000000 0.000000 -1.000000
vn 0.000000 0.000000 -1.000000
vn 0.000000 0.000000 -1.000000
vn 0.000000 -0.000000 -1.000000
vn 0.000000 0.000000 -1.000000
vn 0.000000 -0.000000 -1.000000
vn 0.000000 -0.000000 -1.000000
vn 0.000000 0.000000 -1.000000
vn 0.000000 -0.000000 -1.000000
vn 0.000000 0.000000 -1.000000
vn 0.000000 0.000000 -1.000000
vn 0.000000 0.000000 -1.000000
vn 0.000000 0.000000 -1.000000
vn 0.000000 -0.000000 -1.000000
vn 0.000000 0.000000 -1.000000
vn 0.000000 0.000000 -1.000000
vn 0.000000 0.000000 -1.000000
vn 0.000000 0.000000 -1.000000
vn -0.894427 0.447214 0.000000
vn -0.894427 0.447214 0.000000
vn -0.894427 0.447214 0.000000
vn 0.000000 1.000000 0.000000
vn 0.000000 1.000000 -0.000000
vn -0.894427 0.447214 0.000000
vn -0.894427 0.447214 0.000000
vn 0.894427 -0.447213 0.000000
vn 0.894427 -0.447213 0.000000
vn 0.894427 -0.447214 0.000003
vn 0.894427 -0.447214 0.000000
vn 0.894427 0.447214 0.000000
vn 0.894427 0.447214 -0.000000
vn 0.000000 -1.000000 0.000000
vn 0.000000 -1.000000 0.000000
vn 0.000000 -1.000000 0.000000
vn 0.000000 -1.000000 0.000000
vn -0.894427 -0.447214 0.000000
vn -0.894427 -0.447214 0.000000
vn -0.894427 -0.447214 0.000000
vn -0.894427 -0.447214 0.000000
vn 0.000000 1.000000 0.000000
vn 0.000000 1.000000 -0.000000
vn 0.894427 -0.447214 0.000000
vn 0.894427 -0.447214 0.000000
vn -1.000000 0.000000 0.000000
vn -1.000000 0.000000 -0.000002
vn -0.465040 -0.885290 0.000000
vn -0.488144 -0.872527 -0.020289
vn -0.510301 -0.859996 0.000364
vn -0.531549 -0.847027 -0.000388
vn -0.488050 -0.872576 -0.020460
vn -0.551868 -0.833792 -0.015244
vn -0.571587 -0.820539 0.001792
vn -0.549514 -0.835253 -0.019698
vn -0.590634 -0.806935 -0.002741
vn -0.609132 -0.792926 -0.015069
vn -0.626479 -0.779438 0.001000
vn -0.642603 -0.766198 -0.001308
vn -0.605151 -0.795773 -0.023205
vn -0.658488 -0.752449 -0.014654
vn -0.672723 -0.739894 -0.000763
vn -0.656459 -0.754128 -0.018776
vn -0.685215 -0.728341 0.000000
vn -0.685575 -0.728002 0.000642
vn -0.709497 -0.704706 -0.001849
vn -0.704021 -0.709587 -0.028998
vn -0.746977 -0.664847 0.001941
vn -0.752177 -0.658382 -0.027636
vn -0.790975 -0.611171 0.028783
vn -0.801344 -0.597601 -0.026848
vn -0.841087 -0.540194 0.027615
vn -0.851295 -0.523985 -0.027153
vn -0.890492 -0.454154 0.027721
vn -0.900577 -0.433796 -0.027983
vn -0.936685 -0.349008 0.028525
vn -0.945891 -0.323215 -0.028683
vn -0.973259 -0.228319 0.025258
vn -0.979178 -0.202344 -0.016372
vn -0.996130 -0.085183 0.021659
vn -0.997324 -0.073113 0.000000
vn 0.660513 -0.750815 0.000000
vn 0.660513 -0.750815 0.000000
vn 0.612174 -0.790723 0.000000
vn 0.612174 -0.790723 0.000000
vn 0.556747 -0.830682 0.000000
vn 0.556747 -0.830682 0.000000
vn 0.491945 -0.870626 0.000000
vn 0.491945 -0.870626 0.000000
vn 0.894447 0.447174 0.000000
vn 0.894447 0.447174 0.000000
vn 0.894447 0.447174 -0.000000
vn 0.894447 0.447174 -0.000002
vn 0.894427 0.447214 -0.000000
vn 0.894427 0.447214 0.000005
vn 0.000000 0.000000 1.000000
vn 0.000000 0.000000 1.000000
vn 0.000000 0.000000 1.000000
vn 0.000000 0.000000 1.000000
vn 0.000000 0.000000 1.000000
vn 0.000000 -0.000000 1.000000
vn 0.000000 0.000000 1.000000
vn 0.000000 0.000000 1.000000
vn 0.000000 0.000000 1.000000
vn 0.000000 -0.000000 1.000000
vn 0.000000 -0.000000 1.000000
vn 0.000000 -0.000000 1.000000
vn 0.000000 0.000000 1.000000
vn 0.000000 0.000000 1.000000
vn 0.000000 -0.000000 1.000000
vn 0.000000 0.000000 1.000000
vn 0.000000 0.000000 1.000000
vn 0.000000 0.000000 1.000000
vn 0.000000 -0.000000 1.000000
vn 0.000000 0.000000 1.000000
vn 0.000000 0.000000 1.000000
vn 0.894427 -0.447214 0.000000
vn 0.894427 -0.447214 -0.000002
vn 0.000000 0.000000 1.000000
vn 0.000000 0.000000 1.000000
vn 0.000000 0.000000 1.000000
vn 0.000000 0.000000 1.000000
vn 0.000000 0.000000 1.000000
vn 0.000000 0.000000 1.000000
vn 0.000000 0.000000 1.000000
vn 0.000000 0.000000 1.000000
vn 0.000000 0.000000 1.000000
vn -0.706495 0.707718 0.000000
vn -0.706495 0.707718 0.000000
vn 0.000000 0.000000 1.000000
vn 0.000000 0.000000 1.000000
vn 0.000000 0.000000 1.000000
vn 0.000000 0.000000 1.000000
vn 0.000000 0.000000 1.000000
vn 0.000000 0.000000 1.000000
vn 0.000000 0.000000 1.000000
vn 0.000000 0.000000 1.000000
vn 0.000000 -0.000000 1.000000
vn 0.000000 -0.000000 1.000000
vn 0.000000 -0.000000 1.000000
vn 0.000000 0.000000 1.000000
vn 0.000000 0.000000 1.000000
vn 0.000000 0.000000 1.000000
vn 0.000000 0.000000 1.000000
vn 0.000000 0.000000 1.000000
vn 0.000000 0.000000 1.000000
vn 0.000000 0.000000 1.000000
vn 0.000000 0.000000 1.000000
vn 0.000000 0.000000 1.000000
vn 0.000000 0.000000 1.000000
vn 0.000000 0.000000 1.000000
vn 0.000000 0.000000 1.000000
vn 0.000000 0.000000 1.000000
vn 0.000000 0.000000 1.000000
vn -0.707107 0.707107 0.000000
vn -0.707107 0.707107 0.000000
vn 0.000000 -1.000000 0.000000
vn 0.000000 -1.000000 0.000000
vn 0.894428 -0.447213 0.000000
vn 0.894428 -0.447213 0.000000
vn 0.000000 -1.000000 0.000000
vn 0.707107 -0.707106 0.000000
vn 0.707107 -0.707106 0.000000
vn 0.596769 0.802413 -0.000000
vn 0.630387 0.776269 -0.004198
vn 0.613070 0.789612 0.025651
vn 0.611436 0.790665 0.031546
vn 0.648146 0.761481 0.007272
vn 0.648762 0.760936 0.009194
vn 0.665555 0.746335 -0.004655
vn 0.682804 0.730601 0.000000
vn 0.677145 0.735723 0.013624
vn 0.000000 -1.000000 0.000000
vn 0.000000 1.000000 0.000000
vn 0.894447 0.447174 0.000000
vn 0.894447 0.447174 -0.000000
vn 0.894447 0.447174 -0.000000
vn 0.894447 0.447174 -0.000001
vn 0.000000 0.000000 -1.000000
vn 0.000000 0.000000 -1.000000
vn 0.000000 0.000000 -1.000000
vn 0.000000 0.000000 -1.000000
vn 0.000000 0.000000 -1.000000
vn 0.000000 0.000000 -1.000000
vn 0.894427 -0.447214 0.000000
vn 0.894427 -0.447214 0.000000
vn 0.000000 0.000000 1.000000
vn 0.000000 0.000000 1.000000
vn 0.000000 0.000000 1.000000
vn 0.707107 -0.707107 0.000000
vn 0.707107 -0.707107 0.000000
vn 0.000000 0.000000 1.000000
vn 0.000000 0.000000 1.000000
vn 0.000000 0.000000 1.000000
vn 0.000000 0.000000 1.000000
vn -0.209316 0.977848 0.000000
vn -0.209316 0.977848 0.000000
vn -0.241304 0.970450 0.000000
vn -0.241304 0.970450 0.000000
vn -1.000000 -0.000000 0.000000
vn -1.000000 -0.000000 -0.000002
vn -1.000000 -0.000000 0.000000
vn 0.000000 -1.000000 -0.000008
vn 0.000001 -1.000000 0.000000
vn -0.894427 -0.447214 0.000000
vn -0.894427 -0.447214 0.000000
vn 0.000000 -1.000000 0.000000
vn 0.000000 -1.000000 0.000000
vn 0.000001 -1.000000 0.000000
vn 0.000001 -1.000000 0.000000
vn 0.000000 0.000000 -1.000000
vn 0.894427 -0.447214 0.000000
vn 0.894427 -0.447214 0.000000
vn 0.000000 1.000000 -0.000000
vn 0.000000 1.000000 0.000000
vn -0.894427 -0.447214 0.000000
vn -0.894427 -0.447214 0.000000
vn 0.000000 0.000000 1.000000
f 1//1 2//1 3//1
f 3//2 2//2 4//2
f 5//3 1//3 6//3
f 6//4 1//4 3//4
f 2//5 7//5 4//5
f 4//6 7//6 8//6
f 9//7 10//7 11//7
f 1//8 12//8 10//8
f 1//9 9//9 13//9
f 1//10 13//10 14//10
f 1//11 10//11 9//11
f 5//12 15//12 12//12
f 5//13 12//13 1//13
f 16//14 17//14 15//14
f 16//15 15//15 5//15
f 2//16 14//16 18//16
f 2//17 1//17 14//17
f 19//18 17//18 16//18
f 20//19 2//19 18//19
f 21//20 22//20 2//20
f 21//21 2//21 20//21
f 23//22 22//22 21//22
f 24//23 22//23 23//23
f 25//24 22//24 24//24
f 26//25 22//25 25//25
f 27//26 22//26 26//26
f 28//27 29//27 22//27
f 28//28 22//28 27//28
f 30//29 31//29 29//29
f 30//30 29//30 28//30
f 32//31 30//31 28//31
f 33//32 34//32 35//32
f 4//33 36//33 3//33
f 37//34 34//34 33//34
f 8//35 38//35 36//35
f 8//36 36//36 4//36
f 39//37 38//37 8//37
f 39//38 37//38 33//38
f 40//39 37//39 39//39
f 41//40 34//40 37//40
f 42//41 41//41 40//41
f 42//42 40//42 39//42
f 42//43 39//43 8//43
f 42//44 34//44 41//44
f 43//45 5//45 36//45
f 36//46 5//46 6//46
f 7//47 22//47 8//47
f 8//48 22//48 44//48
f 45//49 46//49 32//49
f 32//50 46//50 30//50
f 46//51 31//51 30//51
f 46//52 47//52 31//52
f 48//53 49//53 28//53
f 49//54 32//54 28//54
f 50//55 45//55 49//55
f 49//56 45//56 32//56
f 51//57 52//57 11//57
f 11//58 53//58 9//58
f 52//59 53//59 11//59
f 53//60 54//60 9//60
f 54//61 55//61 9//61
f 55//62 13//62 9//62
f 55//63 56//63 13//63
f 56//64 57//64 13//64
f 57//65 58//65 13//65
f 58//66 14//66 13//66
f 58//67 59//67 14//67
f 59//68 60//68 14//68
f 60//69 61//69 14//69
f 61//70 18//70 14//70
f 61//71 62//71 18//71
f 62//72 63//72 18//72
f 63//73 64//73 18//73
f 63//74 65//74 64//74
f 64//75 20//75 18//75
f 64//76 66//76 20//76
f 20//77 67//77 21//77
f 66//78 67//78 20//78
f 21//79 68//79 23//79
f 67//80 68//80 21//80
f 23//81 69//81 24//81
f 68//82 69//82 23//82
f 24//83 70//83 25//83
f 69//84 70//84 24//84
f 25//85 71//85 26//85
f 70//86 71//86 25//86
f 71//87 72//87 26//87
f 26//88 72//88 27//88
f 72//89 48//89 27//89
f 27//90 48//90 28//90
f 73//91 74//91 17//91
f 17//92 74//92 15//92
f 15//93 75//93 12//93
f 74//94 75//94 15//94
f 12//95 76//95 10//95
f 75//96 76//96 12//96
f 10//97 51//97 11//97
f 76//98 51//98 10//98
f 47//99 77//99 31//99
f 47//100 78//100 77//100
f 79//101 29//101 77//101
f 77//102 29//102 31//102
f 79//103 80//103 29//103
f 81//104 82//104 79//104
f 79//105 82//105 80//105
f 80//106 19//106 29//106
f 83//107 17//107 19//107
f 84//108 73//108 83//108
f 83//109 73//109 17//109
f 80//110 83//110 19//110
f 85//111 19//111 39//111
f 19//112 38//112 39//112
f 19//113 16//113 38//113
f 16//114 43//114 38//114
f 38//115 43//115 36//115
f 22//116 29//116 44//116
f 29//117 42//117 44//117
f 29//118 86//118 42//118
f 86//119 87//119 42//119
f 42//120 87//120 34//120
f 88//121 85//121 33//121
f 33//122 85//122 39//122
f 87//123 89//123 34//123
f 34//124 89//124 35//124
f 89//125 88//125 35//125
f 35//126 88//126 33//126
f 90//127 91//127 37//127
f 37//128 91//128 41//128
f 92//129 90//129 40//129
f 40//130 90//130 37//130
f 91//131 92//131 41//131
f 41//132 92//132 40//132
f 47//133 46//133 78//133
f 78//134 45//134 93//134
f 93//135 45//135 50//135
f 46//136 45//136 78//136
f 94//137 66//137 64//137
f 94//138 67//138 66//138
f 94//139 68//139 67//139
f 77//140 95//140 79//140
f 79//141 95//141 94//141
f 72//142 95//142 48//142
f 71//143 95//143 72//143
f 70//144 95//144 71//144
f 69//145 95//145 70//145
f 68//146 95//146 69//146
f 94//147 95//147 68//147
f 95//148 49//148 48//148
f 93//149 50//149 49//149
f 93//150 49//150 95//150
f 76//151 52//151 51//151
f 76//152 53//152 52//152
f 76//153 54//153 53//153
f 75//154 55//154 76//154
f 76//155 55//155 54//155
f 75//156 56//156 55//156
f 73//157 84//157 74//157
f 74//158 84//158 75//158
f 56//159 84//159 57//159
f 75//160 84//160 56//160
f 57//161 84//161 96//161
f 97//162 60//162 59//162
f 98//163 63//163 62//163
f 99//164 65//164 100//164
f 100//165 65//165 63//165
f 98//166 100//166 63//166
f 101//167 98//167 62//167
f 102//168 101//168 61//168
f 97//169 102//169 60//169
f 103//170 97//170 59//170
f 96//171 103//171 58//171
f 58//172 57//172 96//172
f 59//173 58//173 103//173
f 61//174 60//174 102//174
f 62//175 61//175 101//175
f 65//176 99//176 94//176
f 65//177 94//177 64//177
f 78//178 93//178 95//178
f 78//179 95//179 77//179
f 99//180 81//180 79//180
f 99//181 79//181 94//181
f 82//182 81//182 104//182
f 104//183 81//183 99//183
f 82//184 104//184 105//184
f 82//185 105//185 80//185
f 83//186 94//186 106//186
f 106//187 94//187 107//187
f 107//188 94//188 108//188
f 108//189 94//189 109//189
f 83//190 105//190 94//190
f 83//191 80//191 105//191
f 106//192 84//192 83//192
f 96//193 84//193 106//193
f 87//194 88//194 89//194
f 87//195 90//195 88//195
f 90//196 85//196 88//196
f 90//197 92//197 85//197
f 85//198 29//198 19//198
f 92//199 29//199 85//199
f 87//200 91//200 90//200
f 92//201 91//201 29//201
f 87//202 86//202 91//202
f 91//203 86//203 29//203
f 103//204 96//204 106//204
f 107//205 97//205 103//205
f 107//206 103//206 106//206
f 102//207 97//207 107//207
f 101//208 107//208 108//208
f 101//209 102//209 107//209
f 98//210 101//210 108//210
f 109//211 98//211 108//211
f 100//212 98//212 109//212
f 99//213 100//213 109//213
f 99//214 109//214 94//214
f 104//215 99//215 94//215
f 104//216 94//216 105//216
f 110//217 111//217 112//217
f 113//218 114//218 115//218
f 116//219 111//219 110//219
f 117//220 118//220 119//220
f 117//221 119//221 114//221
f 117//222 114//222 113//222
f 120//223 118//223 117//223
f 120//224 116//224 110//224
f 121//225 116//225 120//225
f 122//226 111//226 116//226
f 123//227 122//227 121//227
f 123//228 120//228 117//228
f 123//229 121//229 120//229
f 123//230 111//230 122//230
f 124//231 125//231 126//231
f 115//232 127//232 125//232
f 115//233 124//233 128//233
f 115//234 128//234 129//234
f 115//235 125//235 124//235
f 130//236 131//236 127//236
f 130//237 127//237 115//237
f 119//238 132//238 131//238
f 119//239 131//239 130//239
f 113//240 129//240 133//240
f 113//241 115//241 129//241
f 118//242 132//242 119//242
f 134//243 113//243 133//243
f 135//244 113//244 134//244
f 136//245 113//245 135//245
f 137//246 138//246 139//246
f 140//247 113//247 137//247
f 137//248 113//248 138//248
f 138//249 113//249 141//249
f 141//250 113//250 142//250
f 142//251 113//251 136//251
f 143//252 144//252 145//252
f 117//253 113//253 144//253
f 117//254 144//254 143//254
f 146//255 117//255 143//255
f 146//256 143//256 147//256
f 123//257 146//257 147//257
f 123//258 147//258 148//258
f 149//259 120//259 150//259
f 118//260 120//260 149//260
f 151//261 149//261 150//261
f 152//262 149//262 151//262
f 153//263 123//263 148//263
f 111//264 123//264 153//264
f 120//265 110//265 154//265
f 120//266 154//266 150//266
f 112//267 111//267 153//267
f 112//268 153//268 155//268
f 110//269 112//269 155//269
f 110//270 155//270 154//270
f 122//271 116//271 156//271
f 122//272 156//272 157//272
f 116//273 121//273 158//273
f 116//274 158//274 156//274
f 121//275 122//275 157//275
f 121//276 157//276 158//276
f 159//277 137//277 160//277
f 140//278 137//278 159//278
f 126//279 161//279 162//279
f 124//280 162//280 163//280
f 124//281 163//281 164//281
f 124//282 164//282 165//282
f 124//283 126//283 162//283
f 128//284 165//284 166//284
f 128//285 166//285 167//285
f 128//286 124//286 165//286
f 168//287 128//287 167//287
f 129//288 168//288 169//288
f 129//289 169//289 170//289
f 129//290 170//290 171//290
f 129//291 128//291 168//291
f 133//292 171//292 172//292
f 133//293 172//293 173//293
f 133//294 129//294 171//294
f 174//295 173//295 175//295
f 174//296 133//296 173//296
f 134//297 174//297 176//297
f 134//298 133//298 174//298
f 177//299 134//299 176//299
f 135//300 134//300 177//300
f 178//301 135//301 177//301
f 136//302 135//302 178//302
f 179//303 136//303 178//303
f 142//304 136//304 179//304
f 180//305 142//305 179//305
f 141//306 142//306 180//306
f 181//307 141//307 180//307
f 138//308 141//308 181//308
f 182//309 138//309 181//309
f 139//310 138//310 182//310
f 160//311 139//311 182//311
f 137//312 139//312 160//312
f 131//313 132//313 183//313
f 131//314 183//314 184//314
f 127//315 184//315 185//315
f 127//316 131//316 184//316
f 125//317 185//317 186//317
f 125//318 127//318 185//318
f 126//319 186//319 161//319
f 126//320 125//320 186//320
f 187//321 118//321 149//321
f 183//322 187//322 188//322
f 132//323 187//323 183//323
f 132//324 118//324 187//324
f 113//325 140//325 144//325
f 144//326 140//326 159//326
f 153//327 154//327 155//327
f 189//328 145//328 190//328
f 153//329 156//329 154//329
f 151//330 143//330 189//330
f 189//331 143//331 145//331
f 151//332 150//332 143//332
f 156//333 150//333 154//333
f 156//334 158//334 150//334
f 153//335 157//335 156//335
f 157//336 148//336 158//336
f 158//337 148//337 150//337
f 150//338 148//338 143//338
f 153//339 148//339 157//339
f 187//340 191//340 192//340
f 192//341 191//341 193//341
f 187//342 194//342 191//342
f 187//343 152//343 194//343
f 193//344 144//344 195//344
f 195//345 144//345 196//345
f 191//346 144//346 193//346
f 187//347 149//347 152//347
f 194//348 152//348 151//348
f 194//349 151//349 189//349
f 144//350 176//350 174//350
f 144//351 177//351 176//351
f 144//352 178//352 177//352
f 144//353 179//353 178//353
f 144//354 180//354 179//354
f 181//355 160//355 182//355
f 180//356 160//356 181//356
f 144//357 160//357 180//357
f 144//358 159//358 160//358
f 144//359 175//359 145//359
f 144//360 174//360 175//360
f 186//361 162//361 161//361
f 186//362 163//362 162//362
f 186//363 164//363 163//363
f 185//364 165//364 186//364
f 186//365 165//365 164//365
f 185//366 166//366 165//366
f 183//367 188//367 184//367
f 184//368 188//368 185//368
f 166//369 188//369 167//369
f 185//370 188//370 166//370
f 167//371 188//371 197//371
f 198//372 170//372 169//372
f 199//373 173//373 172//373
f 145//374 175//374 200//374
f 200//375 175//375 173//375
f 199//376 200//376 173//376
f 201//377 199//377 172//377
f 202//378 201//378 171//378
f 198//379 202//379 170//379
f 203//380 198//380 169//380
f 197//381 203//381 168//381
f 168//382 167//382 197//382
f 169//383 168//383 203//383
f 171//384 170//384 202//384
f 172//385 171//385 201//385
f 187//386 192//386 188//386
f 188//387 192//387 197//387
f 144//388 191//388 190//388
f 144//389 190//389 145//389
f 191//390 194//390 204//390
f 191//391 204//391 190//391
f 194//392 189//392 204//392
f 196//393 144//393 200//393
f 200//394 144//394 145//394
f 192//395 203//395 197//395
f 198//396 193//396 202//396
f 203//397 193//397 198//397
f 192//398 193//398 203//398
f 193//399 201//399 202//399
f 193//400 195//400 201//400
f 195//401 199//401 201//401
f 199//402 196//402 200//402
f 195//403 196//403 199//403
f 130//404 114//404 194//404
f 114//405 130//405 194//405
f 205//406 206//406 207//406
f 205//407 207//407 208//407
f 209//408 205//408 210//408
f 209//409 206//409 205//409
f 211//410 209//410 212//410
f 211//411 212//411 213//411
f 214//412 206//412 209//412
f 214//413 209//413 211//413
f 215//414 211//414 140//414
f 215//415 214//415 211//415
f 212//416 209//416 216//416
f 216//417 209//417 210//417
f 205//418 217//418 210//418
f 210//419 217//419 216//419
f 216//420 217//420 218//420
f 217//421 208//421 219//421
f 217//422 205//422 208//422
f 207//423 220//423 208//423
f 208//424 221//424 219//424
f 219//425 221//425 222//425
f 220//426 221//426 208//426
f 214//427 215//427 221//427
f 214//428 221//428 220//428
f 206//429 220//429 207//429
f 206//430 214//430 220//430
f 221//431 159//431 222//431
f 215//432 140//432 159//432
f 215//433 159//433 221//433
f 140//434 211//434 159//434
f 159//435 211//435 217//435
f 211//436 213//436 217//436
f 217//437 213//437 218//437
f 213//438 212//438 218//438
f 218//439 212//439 216//439
f 159//440 217//440 222//440
f 222//441 217//441 219//441
f 223//442 224//442 225//442
f 225//443 224//443 226//443
f 226//444 224//444 227//444
f 224//445 223//445 227//445
f 227//446 223//446 228//446
f 223//447 225//447 228//447
f 228//448 225//448 226//448
f 227//449 228//449 226//449
